<svg width="70" height="70" viewBox="0 0 70 70" fill="none" xmlns="http://www.w3.org/2000/svg">
<path d="M54.32 25.0359C53.9131 24.4278 53.2306 24.0625 52.5 24.0625H50.3125C49.1028 24.0625 48.125 25.0403 48.125 26.25V39.375C48.125 40.5847 49.1028 41.5625 50.3125 41.5625H59.0625C60.2722 41.5625 61.25 40.5847 61.25 39.375V36.0938C61.25 35.6628 61.1209 35.2384 60.8825 34.8797L54.32 25.0359ZM59.0625 39.375H50.3125V26.25H52.5L59.0625 36.0938V39.375Z" fill="white"/>
<path d="M68.8975 33.5475L60.1475 20.4225C58.9269 18.5916 56.8837 17.5 54.6875 17.5H45.9375V13.125C45.9375 9.50687 42.9931 6.5625 39.375 6.5625H6.5625C2.94437 6.5625 0 9.50687 0 13.125V37.1875C0 40.8056 2.94437 43.75 6.5625 43.75V50.3125C6.5625 53.9306 9.50687 56.875 13.125 56.875H15.6231C16.6009 60.6397 19.9981 63.4375 24.0647 63.4375C28.1269 63.4375 31.5241 60.6397 32.5019 56.875H44.0562C45.0341 60.6397 48.4313 63.4375 52.4978 63.4375C56.56 63.4375 59.9572 60.6397 60.935 56.875H63.4375C67.0556 56.875 70 53.9306 70 50.3125V37.1875C70 35.8881 69.6194 34.6281 68.8975 33.5475ZM6.5625 39.375C5.355 39.375 4.375 38.3972 4.375 37.1875V13.125C4.375 11.9153 5.355 10.9375 6.5625 10.9375H39.375C40.5847 10.9375 41.5625 11.9153 41.5625 13.125V17.5V21.875V37.1875C41.5625 38.3972 40.5847 39.375 39.375 39.375H6.5625ZM24.0647 59.0625C21.6475 59.0625 19.6897 57.1025 19.6897 54.6875C19.6897 52.2725 21.6475 50.3125 24.0647 50.3125C26.4797 50.3125 28.4397 52.2725 28.4397 54.6875C28.4397 57.1025 26.4775 59.0625 24.0647 59.0625ZM52.5 59.0625C50.0828 59.0625 48.125 57.1025 48.125 54.6875C48.125 52.2725 50.0828 50.3125 52.5 50.3125C54.915 50.3125 56.875 52.2725 56.875 54.6875C56.875 57.1025 54.915 59.0625 52.5 59.0625ZM65.625 50.3125C65.625 51.5222 64.6472 52.5 63.4375 52.5H60.9372C59.9594 48.7353 56.5622 45.9375 52.5 45.9375C48.4334 45.9375 45.0363 48.7353 44.0584 52.5H32.5041C31.5263 48.7353 28.1291 45.9375 24.0669 45.9375C20.0003 45.9375 16.6031 48.7353 15.6253 52.5H13.125C11.9175 52.5 10.9375 51.5222 10.9375 50.3125V43.75H39.375C42.9931 43.75 45.9375 40.8056 45.9375 37.1875V21.875H54.6875C55.4181 21.875 56.1006 22.2403 56.5075 22.8484L65.2575 35.9734C65.4959 36.3322 65.625 36.7566 65.625 37.1875V50.3125Z" fill="white"/>
</svg>
