<svg width="70" height="70" viewBox="0 0 70 70" fill="none" xmlns="http://www.w3.org/2000/svg">
<path d="M39.375 48.125C41.7912 48.125 43.75 46.1662 43.75 43.75C43.75 41.3338 41.7912 39.375 39.375 39.375C36.9588 39.375 35 41.3338 35 43.75C35 46.1662 36.9588 48.125 39.375 48.125Z" fill="white"/>
<path d="M63.4397 28.4375C63.4375 28.4375 63.4375 28.4375 63.4397 28.4375L63.4375 15.3125V14.2188V8.75C63.4375 5.12531 60.4975 2.1875 56.875 2.1875H48.125H12.0312C5.39656 2.1875 0 7.58625 0 14.2188V57.9688C0 64.6013 5.39656 70 12.0312 70H51.4062C58.0388 70 63.4375 64.6013 63.4375 57.9688V54.6875C63.4375 54.6875 63.4375 54.6875 63.4397 54.6875C72.1853 48.1228 72.1853 35.0022 63.4397 28.4375ZM12.0312 6.5625H48.125H56.875C58.0803 6.5625 59.0625 7.5425 59.0625 8.75V14.2188V15.3125V22.2775C58.3756 22.0325 57.645 21.875 56.875 21.875H56.8728V19.6875V15.3125V10.9375C56.8728 9.72781 55.8928 8.75 54.6853 8.75H8.74781C7.54031 8.75 6.56031 9.72781 6.56031 10.9375V15.3125V19.5628C5.21063 18.1825 4.375 16.3013 4.375 14.2188C4.375 9.99031 7.80062 6.5625 12.0312 6.5625ZM54.6853 13.125H8.74781V10.9375H54.6853V13.125ZM54.6853 15.3125V17.5H8.74781V15.3125H54.6853ZM54.6853 19.6875V21.875H48.125H12.0312C10.85 21.875 9.7475 21.5862 8.75 21.1094V19.6875H54.6853ZM59.0625 57.9688C59.0625 62.1972 55.6347 65.625 51.4062 65.625H12.0312C7.80062 65.625 4.375 62.1972 4.375 57.9688V23.4916C6.45531 25.2131 9.12406 26.25 12.0312 26.25H48.125H56.875C58.0803 26.25 59.0625 27.23 59.0625 28.4375V32.8125H39.375C33.3331 32.8125 28.4375 37.7081 28.4375 43.75C28.4375 49.7919 33.3353 54.6875 39.375 54.6875H59.0625V57.9688ZM61.8559 50.3125H39.375C35.7569 50.3125 32.8125 47.3681 32.8125 43.75C32.8125 40.1319 35.7569 37.1875 39.375 37.1875H59.0625C60.4122 37.17 61.7509 36.5159 62.5669 35.4287C62.7944 35.1225 62.9716 34.7791 63.1137 34.4203C63.1334 34.3722 63.1684 34.335 63.1859 34.2847C64.7588 36.3475 65.625 38.8762 65.625 41.5625C65.625 44.9269 64.2666 48.0484 61.8559 50.3125Z" fill="white"/>
</svg>
