<svg width="70" height="70" viewBox="0 0 70 70" fill="none" xmlns="http://www.w3.org/2000/svg">
<path fill-rule="evenodd" clip-rule="evenodd" d="M63.7962 22.9075C61.0619 22.19 54.6328 22.1988 45.2288 21.9494C45.6728 19.8975 45.7756 18.0469 45.7756 14.7613C45.7756 6.9125 40.0575 0 35 0C31.4278 0 28.4834 2.92031 28.4375 6.51219C28.3894 10.9178 27.0266 18.5259 19.6875 22.3847C19.1494 22.6691 17.6094 23.4281 17.3841 23.5266L17.5 23.625C16.3516 22.6341 14.7591 21.875 13.125 21.875H6.5625C2.94437 21.875 0 24.8194 0 28.4375V63.4375C0 67.0556 2.94437 70 6.5625 70H13.125C15.7281 70 17.9069 68.4272 18.9613 66.2222C18.9875 66.2309 19.0334 66.2441 19.0641 66.2484C19.2084 66.2878 19.3791 66.3294 19.5869 66.3841C19.6263 66.395 19.6459 66.3994 19.6875 66.4103C20.9475 66.7231 23.3734 67.3028 28.5578 68.495C29.6691 68.7488 35.5403 70 41.6216 70H53.5806C57.225 70 59.8522 68.5978 61.4163 65.7825C61.4381 65.7388 61.9412 64.7566 62.3525 63.4288C62.6609 62.4291 62.7747 61.0138 62.4028 59.5788C64.7522 57.9644 65.5091 55.5231 66.0013 53.935C66.8259 51.3297 66.5787 49.3719 66.0056 47.9697C67.3269 46.7228 68.4534 44.8219 68.9281 41.9191C69.2234 40.1209 68.9063 38.2703 68.0772 36.7303C69.3153 35.3391 69.8797 33.5891 69.9453 31.9703L69.9716 31.5131C69.9869 31.2266 70 31.0494 70 30.4194C70 27.6566 68.0859 24.1325 63.7962 22.9075ZM15.3125 63.4375C15.3125 64.6472 14.3347 65.625 13.125 65.625H6.5625C5.35281 65.625 4.375 64.6472 4.375 63.4375V28.4375C4.375 27.2278 5.35281 26.25 6.5625 26.25H13.125C14.3347 26.25 15.3125 27.2278 15.3125 28.4375V63.4375ZM65.5747 31.7953C65.5309 32.8759 65.0781 35 61.25 35C57.9688 35 56.875 35 56.875 35C56.2691 35 55.7812 35.49 55.7812 36.0938C55.7812 36.6975 56.2691 37.1875 56.875 37.1875C56.875 37.1875 57.8331 37.1875 61.1144 37.1875C64.3956 37.1875 64.8266 39.9087 64.6144 41.2212C64.3431 42.8531 63.5775 45.9375 59.8828 45.9375C56.1925 45.9375 54.6875 45.9375 54.6875 45.9375C54.0816 45.9375 53.5938 46.4253 53.5938 47.0312C53.5938 47.6328 54.0816 48.125 54.6875 48.125C54.6875 48.125 57.2862 48.125 58.9947 48.125C62.6872 48.125 62.3613 50.9403 61.8319 52.6203C61.1341 54.8275 60.7075 56.875 56.0547 56.875C54.4819 56.875 52.4869 56.875 52.4869 56.875C51.8809 56.875 51.3931 57.3628 51.3931 57.9688C51.3931 58.5703 51.8809 59.0625 52.4869 59.0625C52.4869 59.0625 54.0028 59.0625 55.9169 59.0625C58.31 59.0625 58.4216 61.3266 58.1722 62.1381C57.8988 63.0263 57.575 63.6847 57.5619 63.7153C56.9012 64.9075 55.8359 65.625 53.5806 65.625H41.6216C35.6147 65.625 29.6559 64.2622 29.5028 64.2272C20.4159 62.1338 19.9369 61.9719 19.3659 61.81C19.3659 61.81 17.5153 61.4972 17.5153 59.8828L17.5 29.6691C17.5 28.6431 18.1541 27.7156 19.2369 27.3897C19.3725 27.3372 19.5563 27.2803 19.6875 27.2256C29.68 23.0869 32.7228 14.0131 32.8125 6.5625C32.8256 5.51469 33.6328 4.375 35 4.375C37.3122 4.375 41.4006 9.01688 41.4006 14.7613C41.4006 19.9478 41.1906 20.8447 39.375 26.25C61.25 26.25 61.0969 26.565 63.0263 27.0703C65.4194 27.755 65.625 29.7369 65.625 30.4194C65.625 31.1697 65.6031 31.0603 65.5747 31.7953Z" fill="white"/>
<path fill-rule="evenodd" clip-rule="evenodd" d="M9.84375 56.875C8.0325 56.875 6.5625 58.345 6.5625 60.1562C6.5625 61.9675 8.0325 63.4375 9.84375 63.4375C11.655 63.4375 13.125 61.9675 13.125 60.1562C13.125 58.345 11.655 56.875 9.84375 56.875ZM9.84375 61.25C9.24219 61.25 8.75 60.7578 8.75 60.1562C8.75 59.5547 9.24219 59.0625 9.84375 59.0625C10.4453 59.0625 10.9375 59.5547 10.9375 60.1562C10.9375 60.7578 10.4453 61.25 9.84375 61.25Z" fill="white"/>
</svg>
