<svg width="70" height="68" viewBox="0 0 70 68" fill="none" xmlns="http://www.w3.org/2000/svg">
<path d="M69.7396 25.4684C69.1337 23.7206 67.5784 22.4409 65.7059 22.1631L47.4927 19.455L39.5762 3.01812C38.7427 1.29219 36.9599 0.1875 34.9999 0.1875C33.0399 0.1875 31.2571 1.29219 30.4237 3.01812L22.5071 19.455L4.2918 22.1631C2.42149 22.4409 0.866174 23.7206 0.262424 25.4684C-0.339139 27.2206 0.115861 29.15 1.43711 30.4669L14.7852 43.7931L11.6899 62.2797C11.3749 64.1413 12.1821 66.0094 13.7637 67.0987C14.6321 67.6959 15.6537 68 16.6752 68C17.5152 68 18.3574 67.7944 19.1209 67.3853L34.9999 58.8366L50.8812 67.3853C51.6446 67.7944 52.4868 68 53.3246 68C54.3462 68 55.3677 67.6959 56.2384 67.0987C57.8199 66.0094 58.6227 64.1413 58.3099 62.2797L55.2124 43.7931L68.5649 30.4669C69.884 29.1478 70.3368 27.2184 69.7396 25.4684ZM51.5987 40.3566C50.4787 41.4722 49.9712 43.045 50.2271 44.5872L53.3246 63.0737L37.4434 54.5294C36.6821 54.1181 35.8421 53.9147 34.9977 53.9147C34.1577 53.9147 33.3155 54.1203 32.5543 54.5294L16.673 63.0737L19.7705 44.5872C20.0287 43.045 19.5212 41.4722 18.4012 40.3566L5.05305 27.0303L23.2662 24.3178C24.9309 24.0706 26.3637 23.0294 27.079 21.5441L34.9999 5.11156L42.9187 21.5462C43.6362 23.0316 45.0668 24.0706 46.7293 24.32L64.9468 27.0325L51.5987 40.3566Z" fill="white"/>
</svg>
